<svg width="64" height="64" viewBox="0 0 64 64" fill="none" xmlns="http://www.w3.org/2000/svg">
  <circle cx="32" cy="32" r="30" stroke="#4F46E5" stroke-width="4" fill="white"></circle>
  <path d="M32 16C25 16 20 22 20 28C20 38 32 50 32 50C32 50 44 38 44 28C44 22 39 16 32 16ZM32 32C29.8 32 28 30.2 28 28C28 25.8 29.8 24 32 24C34.2 24 36 25.8 36 28C36 30.2 34.2 32 32 32Z" fill="#4F46E5"></path>
  <path d="M16 48L20 44" stroke="#4F46E5" stroke-width="3" stroke-linecap="round"></path>
  <path d="M48 48L44 44" stroke="#4F46E5" stroke-width="3" stroke-linecap="round"></path>
</svg>
